<svg width="1920" height="424" viewBox="0 0 1920 424" fill="none" xmlns="http://www.w3.org/2000/svg">
<path fill-rule="evenodd" clip-rule="evenodd" d="M0 424L80 416.148C160 408.296 320 392.593 480 400.444C640 408.296 800 439.704 960 384.741C1120 329.778 1280 188.444 1440 157.037C1600 125.63 1760 204.148 1840 243.407L1920 282.667V-3.05176e-05H1840C1760 -3.05176e-05 1600 -3.05176e-05 1440 -3.05176e-05C1280 -3.05176e-05 1120 -3.05176e-05 960 -3.05176e-05C800 -3.05176e-05 640 -3.05176e-05 480 -3.05176e-05C320 -3.05176e-05 160 -3.05176e-05 80 -3.05176e-05H0V424Z" fill="#B4C9F3" fill-opacity="0.5"/>
</svg>
