<svg width="192" height="1080" viewBox="0 0 192 1080" fill="none" xmlns="http://www.w3.org/2000/svg">
<path fill-rule="evenodd" clip-rule="evenodd" d="M127.188 1080L137.99 1033.58C148.792 987.167 170.396 894.333 137.99 801.5C105.584 708.667 19.1674 615.833 2.96432 523C-13.2387 430.167 40.7715 337.333 73.1776 244.5C105.584 151.667 116.386 58.8333 121.787 12.4166L127.188 -34H192V12.4166C192 58.8333 192 151.667 192 244.5C192 337.333 192 430.167 192 523C192 615.833 192 708.667 192 801.5C192 894.333 192 987.167 192 1033.58V1080H127.188Z" fill="#B4C9F3"/>
</svg>
