<svg width="48" height="48" viewBox="0 0 48 48" fill="none" xmlns="http://www.w3.org/2000/svg">
<path fill-rule="evenodd" clip-rule="evenodd" d="M3 24C3 29.5695 5.21249 34.911 9.15076 38.8492C13.089 42.7875 18.4305 45 24 45C29.5695 45 34.911 42.7875 38.8492 38.8492C42.7875 34.911 45 29.5695 45 24C45 18.4305 42.7875 13.089 38.8492 9.15076C34.911 5.21249 29.5695 3 24 3C18.4305 3 13.089 5.21249 9.15076 9.15076C5.21249 13.089 3 18.4305 3 24ZM48 24C48 30.3652 45.4714 36.4697 40.9706 40.9706C36.4697 45.4714 30.3652 48 24 48C17.6348 48 11.5303 45.4714 7.02944 40.9706C2.52856 36.4697 0 30.3652 0 24C0 17.6348 2.52856 11.5303 7.02944 7.02944C11.5303 2.52856 17.6348 0 24 0C30.3652 0 36.4697 2.52856 40.9706 7.02944C45.4714 11.5303 48 17.6348 48 24ZM13.5 22.5C13.1022 22.5 12.7206 22.658 12.4393 22.9393C12.158 23.2206 12 23.6022 12 24C12 24.3978 12.158 24.7794 12.4393 25.0607C12.7206 25.342 13.1022 25.5 13.5 25.5H30.879L24.438 31.938C24.2985 32.0775 24.1879 32.243 24.1124 32.4252C24.037 32.6075 23.9981 32.8028 23.9981 33C23.9981 33.1972 24.037 33.3925 24.1124 33.5748C24.1879 33.757 24.2985 33.9225 24.438 34.062C24.5775 34.2015 24.743 34.3121 24.9252 34.3876C25.1075 34.463 25.3028 34.5019 25.5 34.5019C25.6972 34.5019 25.8925 34.463 26.0748 34.3876C26.257 34.3121 26.4225 34.2015 26.562 34.062L35.562 25.062C35.7017 24.9227 35.8125 24.7571 35.8881 24.5749C35.9638 24.3927 36.0027 24.1973 36.0027 24C36.0027 23.8027 35.9638 23.6073 35.8881 23.4251C35.8125 23.2429 35.7017 23.0773 35.562 22.938L26.562 13.938C26.4225 13.7985 26.257 13.6879 26.0748 13.6124C25.8925 13.537 25.6972 13.4981 25.5 13.4981C25.3028 13.4981 25.1075 13.537 24.9252 13.6124C24.743 13.6879 24.5775 13.7985 24.438 13.938C24.2985 14.0775 24.1879 14.243 24.1124 14.4252C24.037 14.6075 23.9981 14.8028 23.9981 15C23.9981 15.1972 24.037 15.3925 24.1124 15.5748C24.1879 15.757 24.2985 15.9225 24.438 16.062L30.879 22.5H13.5Z" fill="#0F1F6C"/>
</svg>
